<?xml version="1.0" encoding="UTF-8"?>
<svg version="1.1" viewBox="0 0 2048 2048" width="512" height="512" xmlns="http://www.w3.org/2000/svg">
<path transform="translate(642,185)" d="m0 0 53 1 30 4 18 5 4 4-3 1v2l6 2 9 7 13 12 8 7 16 8 12 2h45l7 6 15 8 15 10 8 4 16 4 7 1 2 5 12 7 17 5 31 6 7 3v8l-4 3-6 2-2 1 19 11 8 4 25 8 23 5 16 1 5 3 15 16-1 4-16 2-5 3v4l20 9 3-1 2 4-5 9-7 5-5 1 2 5 8 8 4-1 3-5 2-12 2-4h9l6-4 5-6 4-9 3-16 6-2 17-3 6-12 10-9 11-9 12-9 2-2-4-1-11 3-4 2h-4l2-5 6-9 7-7 10-7 7 1h9l10-3 39-17 12-4h8l3 3v5l10-4 16-8 27-11 45-15 50-14 40-11 8-2h10l21 5 6 3 2 4-2 2 16-1 32-5 26-4 27-2 25 3 10 2v2l-14 1h6l6 2 16 5 49 18 20 8 9 4 7 2 17 2 3 2-1 3-2 2 24 14 18 10 27 16 15 10 19 12 15 10 16 12 11 9 14 12 23 23 9 11 12 15 15 24 6 10-1 3-12-16-8-6-8-3-8-1 8 16 6 11 10 9 9 10 13 19 2 3v7l-5 3-2 1 4 18 6 15 7 13 9 15 12 23 9 20 7 20 2 9 2-2v21l-3-1-15-27-14-25-11-19-2-5h-2l-1 8-4 13h-3l-6-12-10-14-2-2 2 11 7 18 1 7-1 2h-3l-6-10-3-3 1 12 6 12 5 8h-3l-7-11-8-14-9-17-15-33-16-35-11-20-7-10 1-3 6 2 2 1-11-27-7-12-2-2-4-1 2 8 6 14-1 2h-7l-8-9-1-2v-7l-4-9-9-15-13-20-6-11-2-11-5-2-10-6-5-1h-5l-5 8-3 4-5-2-8-6-8-8-5-18v-2l-11-3-46-14-31-9-15-6 2-4-1-5-3-5-16-5-36-6-12-3-7-5-8 1-38 8-34 7-48 11h-2v-9l4-3 16-5 30-7 1-2-18 1 2-2 11-3 12-5 12-8h-14l-15 4-34 12h-4l-1-5h-15v8l-2 7-2 4-4-1 2-4 2-3-10 1-26 7-15 5 4 3 11 6 5-1 4-4 15-4 2 5 13 4v4l-11 2-35 6-16 5-9 3-4-1-5-6-11 1-15 4-35 13-5 1-1-5-16 4-35 15-21 6-9 3-12 14-10 11-9 11-12 13-9 11-10 11-13 17-13 16-6 7-12 9-21 14-22 14-6 4-4-1-14-12-12-11-14-11-17-11-12-5-1-3 9 2 21 8h3l-13-8-15-8-10-7-7-8-1-5 8 4 11 9 6 4-5-13-1-4 1-4-15-11-20-11-15-6-1 1 6 6-1 4-7 5 11 7 2 4-5-1-29-12-26-13-23-10-20-11-2-2 1-6-7-8-4-1-6 3h-6l1-3 8-3h3v-3l-7-3-15-1-17-5-30-10-9-2-12-1-13 1-8 6-5-2 1-5 11-3 6-1h8l-3-7-4-5 1-1 21 1 22 4h9v-2l-5-2-4-13-1-1-14 1-10 2-1 1h-24l-47-5-32-4h-44l-24 10-19 10-16 8-19 8-23 8h-3l-2-5-13-1-7-3-1-5 4-5h-14l-12 6-7 7-1 3 14-2h5v4l-6 5-16 8-6 2h-7l-2-1v-2l-8 2-6 15-4 2-4-1-21 10-12 6-5 1-3 21-10 3-9 5-8 1-2 9-4 20-5 10-4 4-10 2-11 5h-6l-5 5-5 10-3 10-4 27-2 20-3 10-6 10h-4l-4-3h-3l-5 17-3 15 1 7 7 17 6 14 5 19 2 10h4l3-9 1-7v-17l-4-7-4-4 1-4 5-5 1-24h4l3 7 2 9 1 13 1 60 1 6 3 1 9-14 8-18 5-17 5-22-1-4-5 5-3-1 2-6 2-5-11 8-4-1 9-29-6 3h-7v-5l5-7 1-9-3-11-4 4-5-1 1-5 8-9 7-8 12-14 8-7 6-4-4-6 1-5 6-10 5-6 2-7-3-1v2l-6 2-1-5 4-13 2-8 7-2 5 2 2 5 2 7 6-1 12-6 5-5 5-12 6-18 6-8 5-2v3l-7 19-6 11-6 8 1 1 6-1-1 6-8 10-11 12-4 6-3 1-2-7-3 1-5 5-6 5-5 2 10 5v6h2l2-5 16-16h2l-2 5-4 6-2 6v16l4 17v9l-4 9-4 3-2-5-4-1-16 4-3 12-2 18h15l2 2-1 5-6 8-12 9-3 3h-2l-2 7v12l1 3 3 1 2-15h2l1 3v12l-3 9-4 8-22 28-10 16 1 3 14 7 5 5-1 3-13-1-3-1-2-4-2-1 1 14 4 16h2l2-5 4 1 6 7 8 14 1 4-4 1-5-5-4-7v-2h-2l-3 10-2 6 1 10-4-2-9-10-8-14-4-8h-3v-3h-4l-1-2v-13l-4 2-8 3h-6l-1-1 1-18-6-2h-5l-3 7-5 14v8l3 12 11 14 12 14 3 3v2h2l7 8 9 9-5-8-7-9-2-5v-11l3-9 4 2 6 12 8 7 15 8 5 1-1-4 4 2 4 4v5l-6 6 1 7 12 22 1 4-6-1-8-5-10-9-12-11-2-1 2 8v15l-2 14-3 15 10 1 2 2 2 19-1 12-8 4-3-1 8 16 1 3-4-1-8-7-4-2h-5l-2 4-10 11-7 3 7 16 9 17 2-9 4 1 8 10 3 4-1 9 5 12 11 20 2 3 2 14 7 16 10 15 5 7 21 5 22 6-2-8v-7l2-2 12-2 1 5 3 2v-9l-6-9-12-15-7-9-9-10-5-4-12-6 3 6 1 3h2l5 6 1 5-4-1-3-2v-2h-2l-10-13-12-27-1-7 4-7-1-5-7-11-4-6v-2h-2l-4-7v-2l4 2 3 6 3 3 11 4 5 3 8 11-2-8-11-23-2-4-13-4 3-10 3-8 4-1 9 10 9 14 9 12 2 1 1-8 3-3 8 16 5 9v2l-7-1 7 14 1 4v7l-3 7-2 5 1 7 6 11 6 8 16 9 12 12 9 15 9 16v2l-5-2-3-3-5 2-5 4-5 1 7 13 5 5 5 4 17 9 1 3-6 8-6-1-6-8h-4l4 10 7 10 1 9-1 3 6 8 11 12 15 10 20 8 20 7 15 9 13 13 9 13 9 16-2 4-2 1 7 8 13 12 8 7 16 17 14 15 10 10 6 7 8 7 10 9 8 7 5 8 11 26 4 8v3l-6-1-11-3h-13l-5 1-1 4-2-2-2-12-7-14-11-16-6-10-5-5 2 7v5l-3-1-7-11-6-10-4-2-1-3v10l-4 1-4-5-8-23-12-6-22-2-10-7v-2h-2l-5-6v-3h20l14 3 5 2 9 1 6 3h4l-8-5-10-6-8-7v-2h-2l-7-8-7-7-12-9-1-3 7 1 2 1-7-11-12-20-1-3-2 2-4-1-5-3-18-12-10-4 5 10 9 14 8 10 14 17 10 15 7 10-4 1-10-6-12-5-15-4-8-1-2 1-3-3h-6l-6 4-8 10-7 6v2l12 7 6 5v2h2l7 8 9 10 7 8 11 9 5 2h2l1-5-4-11-8-9v-2l-4-2 1-3 14 9 6 5v2l-2 2 8 11 11 13 9 11 9 10 5 6v2l-5-2-5-3-13-2 2 5 7 13v4l5-2 8-7 7 1 7 7 11 14 10 14 11 19 8 20 4 13h3l2-2 5-1 19 4 16 5 16 2 1 4v6l7 10 11 13 1 4 7-4 4-5 4-9 2-10v-10l-2-7-11-4h-14l-16 5-7-1-29-16-12-7-1-3h13l-7-8-10-9-9-7-6-6v-6l5-1 12 5 16 12 8 4 4 1-2-5-2-3 1-5 6 2 5 4 4 9 3 10 5 5 4 3 4 2 1-5 4 1 4 3v2l7 1v-3h-2l-7-8-6-6v-2l-3-1-8-11-2-5 4-6 2-1 7 3 7 7 12 19 8 12 9 11 10 6 9 3 4 5 15 11 15 7 25 5 10 11 14 9 16 8 3 3-1 7 10 4 7 5v2l-7-1-10-6-4-2-2-5-3-3v-2l-4-2-6-5-3-1-3 9-5-5-4-6-7-4-10-4-23-2 1 1 18 12 14 10 13 8 7 3 9 1 2-2h5l5 18 9 3 2 5-6 7-9 2-10-2-12-6-2-2v-5l-2-1v-2l-9-1-10-3-11-6-8-6v-2h-2v-3l5 1 4 1-5-4-12-9-18-11-17-7-7-2 7 8 17 17 8 7 9 9 2 1v2l4 2 9 8 13 10 16 13 14 11 4 3 6-1 31-12 20-9 11-7 5 1 27 16 16 10 13 10 10 9 3 3v2l4 2 2 3-1 5 5 5 11 7 10 5 3 3-1 4-5 3-5 1 2 3 23 10 12 5 3 3v2h-8l-16-6-23-13-3-3v-4l-16-9-16-8-12-7-4-5-2-9 2-2 6-1-4-6-11-11-7-5-11-2-9 2 1 6 10 16v5l5 3 16 8 11 7 3 3v2l-9-2-24-11-8-5-2-5-8-2h-11l-8 2-5 3h-2l-2 4-2 6 1 8 1 2 9 1 21 7 6 1-1-5-4-5-1-5 10 2 15 5 24 11 26 12 10 7 19 10v2l-4 1h-11v2l9 1 23 5 10 2-1 2-5 1 5 6 11 9 9 8 7-1 11-4 1-3-5-8-4-3-15-2-5-2v-1h38l4-2h4l-1 7 2-6 4 2 7 14 2 2h6l3-3 3 1 5 24 3 5 1 4-17 9-3 2h-5l6-15 5-8 3-4-2-5h-3l-2 5-4 6-3 1-3-15-5-1-10 7-6 1-3-3v-2l-12 2h-7l-2 1 3 9 5 6 11 6 16 6 4 4-1 4-1 2 10 5h4l6-11 1-1h5l4 9 1 3 7-2 4-3 2-7 15 1-4-7 1-5 11-4 8-5 3-4-1-6-1-4-7 1-19 9h-6l2-7h-5-3l-4-1 2-3 9-1 2-6 4-2v7l7-1 14-5 10-1 8-11 4 1 7-4 9-10 2-1-13 2-12 3-12 7-3 4h-2v2h-2l2-4 7-8 12-13 16-16 8-7 9-6 25-11h4l-1 4-2 3v8l5 12-1 7-7 8-11 7-6 3h-3l-1-2-6 1-8 6h-2l-2 4-6 8-10 15v4l3 6 8-1 5-1v-7l6-11 7-7h2v-2l8-5 8-4 5-1 6 17 5-2 19-11 6-3 6 1 8-4 17-13 9-7 14-8 5-5h2l2-4 12-12 11-9 8-8 4-6 1-4-9-1 1-3 12-6 10-9 13-17 8-9-10 3-12 5h-3l2-5 11-18 6-16 5-15 4-1 8 5 1 4 11-8 25-20 13-11 11-9 27-27 7-10 7-13 5-5 16-9 19-8 14-8 9-8 1-2h2l2-4 4-5-1-5-5-7 5-7 8-6 2 1-2 12 4-1 8-7 6-12 9-10 14-13 11-9 7-7 7-11 4-7 14-12 9-7 7-4 7 1-1 5-10 11-8 10-10 12-8 13-5 8h-11l-1-5-12 11-9 15-7 9-7 6-1 2 10-3 9-6 4-3h3l-1 6-9 17-5 7-6 12-1 4 10-1 7-6 7-12 12-35 6-9 4-4 5-3 3-2h3l1 4-8 15-8 14-5 16 16-10 6-4 3-12 2-9 11-7 10-9 5-9 3-12 2-21 4-15 3-8-9 1-8-7-7-8-8-2 1-4h2l2-5 11-12 8-7 7-3 9 1 2 2-1 5-5 17 1 7 5 7v11l-4 13v2l6 4 5 5 8 1 8-5 3-6 2-11-6-1-2-4 6-12 6-2 3-7 10-13 3-7 6-2 3-3 7-22 5-5h2l-5-5 4-17 2-8-21 12-11 7-7 6h-2l-2 4-9 10-1 6 5 7 1 9 4-5 6-8 2 1-4 13-6 7-5 3-5 6h-3l1-8 1-2v-10l-6-13-1-5 3-6h2l2-4 5-7 6-11 4-5 5-1 8-1 17-12 10-9 12-11 21-21 1 2-5 9-2 9 7-3 10-9 4-3 3-13 5-4 2-8v-13l-1-15 2-10h4l8 12 5 2 9-4 14-7 9-9 6-11 2-7 1-17 3-6 14-14 2 2v8l-5 14-8 16-1 9 1 4 9 5-1 10-4 16v9l-1 6 5-10 9-25 3-9 4 1 3 5 1 5v8h-4l-1-3h-2l-1 3h-2l-2 5-3 8-4 16-4 22-5 15-6 10-4-1v7l-5 12-9 16-10 16-8 16-7 17-12 37-15 43-1 4 3 1 1 4-4 6h-2l-2 4-5 8-11 25-8 20 6-3 8-7 5-10 8-14 2-7-2-4 1-4 5-5h2v-2l5-5 10-16 6-9-3-3v-7l3-13 1-9 2-4 7-4 7-9 4-5 3-2h3l1 3-8 8-3 6-1 8 6-3 11-9h2l1-3 4-1 2 2 7-15 21-42 10-21 8-24v-2h-2l-2 5-3 3-2-1 4-8 13-23 7-13 5-5v6l-13 31-1 4 6-2 2-5 12-25 3-4 1-40h-3l-4 7-2-2 6-18 24-51 4-10 3-1 2 5v13l-7 19-11 25-6 19-1 9 8-1 7-1 2 5h2v-2h2l3-11 2-12 5-6 3 1v20l-6 26-9 33-4 18-2 4h-4l-5 5-13 20-9 20 1 1 3-6 3-1-3 11-6 16 6-3 12-2-1 6-7 14-12 17-3 3-4-1-4-11-3-1-1 4-7 8-13 12-4 5-3 6 5-4h3l1 2v10l-5 21 1 6v9l-4 8-5 4-6 1-1-2 7-14 1-8h-2l-8 14-3 6-5 4-1-2 2-3v-3l-2 5h-3l-2 5-12 17-5 7-1 8 4 24 2 8v5l-9 6-7 10-4 9-5 3-5 2-1 3-8 7-11 13-10 15-5 11-3 6-3-1 2-16 5-26v-13l-5 1-12 11-13 15-10 14-3 7v11l3 12v9l-5 5-4 1v2h-2l-2 5-6 16v3l10-9 6-7 4-1-1 4-9 10-16 16-6 10h-2l-1-6-9 5-10 9h-6l-13 10-7 5-9 11-7 8-11 17-8 18-2 2-10 2-10 6-10 10-9 11-3 1-2 4-11 9-8 4 2-4 10-9 5-4v-3l-6 1-13 5h-2l1-5 8-5 6-5 7-10 2-9-13 4-17 7-2-2 2-3h2v-2l-21 9-18 7-1 1 4 2-2 4-12 8-19 14-17 14-14 11-14 12-16 13-16 12-18 13v10l-6 12-7 9-10 10-11 10-11 9-13 10-16 13-14 11-7 7-5 4-6 8-4 6-2-1-1-15-3-9-4-6-7-1v-3l6-1 7-11 8-10 5-5 7-6 2-1h20l5 3 8-7 1-5-17-1-4-2v-2l-6 1-8 7h-2l-1 3-8 7-10 9-7 8-13 14-11 14-12 13-7 8-10 11h-2v-3h-3l-2 4-13 12-6 5 13-3 6 1 2 4-3 6h-2v2l-18 10-19 7-18 10-21 13-19 12-26 15-10 9-3 4h-2l-2 4-10 10-4-2-13-10-6-5-10-14-8-19-5-12-19-10-20-9-33-11-29-8-23-6-9-10-7-8-16-16-5-7-1-4-18 2-17 3h-12l-12-5-13-11-9-11-3-3 1-3 12 2v-2l-5-2-24-14-25-15-24-14-24-15-20-13-13-10-9-8-3-4 1-3 5-3 2-7-2-9-9-17-13-21-12-20-5-15 1-7-9-2-14-5-1 4h-4v-2h-2v-2l2-1-2-6-3-5-6-4v7l-6 7h-2v2l-2 1 1 5 9 6 4 2v3l-21-1-23-6-12-5-17-9-13-10-15-13v-3l5-5 5-1 8 8 7 8 10 11 6-1 15 6 5 3v-2h-2l-11-15-3-7 1-5 7-6 1-3-6-10-9-9-8-6-6 1-11-7-1-3 5-1-3-7-3-2-17-4v-6l3-6 7 1 16 8 5 3 4-1 1-4 5 1 25 13 19 10 15 5 6-1 3-3-9-9-12-7-23-6-14-4-12-7-13-13-1-5v-5l-13-4-23-1-2-9-5-8-46-19-25-10h-3l11 9 16 16 14 19 18 24 12 12 12 9 3 2v2l4 1-1 3-35-21-17-8-12-2 2-4 4-2-4-4-26-18-13-11-11-12-7-9v-2l5 1 6 4-5-5-8-9-20-32-10-14-11-9-4-1 2 4 5 6h-3l-4-3v-2l-4-2-11-13-13-19-8-10-24-15-15-9-8-5v-9l-2-7v-8l5-1-4-10-7-10-14-14-11-8-13-12-2-3-1-10 4-1 12 12 7 8 8 7 5 3h2l-2-6-11-21-12-20-14-21-14-19-7-9-12-12 1 12h-2l-8-16-7-15-9-4-2-3v-12l1-2 5 1 4 1-4-7-8-11-8-14-2-10 1-5h3l12 22 10 19h1l-10-60-7-24-8-20-1-1v-5h8l1-2-5-13-5-7-7 1-11 4 3 10 4 13 2 13v11l-1 9-2 3-5-2-4-3-5-2 1-2h4l-3-23-10 1 1-4 4-4 3-12v-12l-2-12-3-7-4 12-2 3h-2v2l-10 7-4-1-7-10-2-6v-35l-2-10-6-11h3l5 8v2l3 1v-8l-3-11-6-9-8-7-2-3v-3l5 2 5 4 16 8 12 7 5 6 7 27 8 20 2-29 3 1 4 8 3 7 5 4 10 1-1-16-4-16-5-9-11-12-5-5-4-10-2-9-2-1 1 16-5-1-4-6-2-14-4-6-7-9-5-12-1-3h3l2 1 2-1v-9l-7-24-2-4-2-1h-21l-8-4-6-8-5-12-2-19-10-7-5-3v-62l3-17 5-32 14-70 5-3 7-25 35-105 9-23 13-18 9-12 4-4h2v-2l7-3 8-16 3-3 3 1-3 9-4 9 3 1 1-5h3l6 8 4 5 1 7-3 12-5 12-5 7-2 1h-6l-1-4 1-6h2v-5l4-8 1-10-5-1-3 8v6l1 3 2 1-5 10-7 8-6 1-3-1-1 8-12 24-3 10 1 6-7 18-2 2-5-1-4-4h-2l-2 4v6l9 15 2 2-1 9-10 23-5 13-2 7v20l4 9 9 3 9 2 5 5 4 10 1 3 1 21h-9l-11 9-11 18-8 21-3 3v-58l3-19 2-7-3 3h-4l1-21 2-25-6-1 1 9v12l-2 24-4 20-6 19v12l5 36v13l-4 25-3 4-6-1 3 15v14l5 2 20 11 21 12 27 14 28 14 5 2-1-3-1-27v-24l2-40 6-44 5-22 8-30v-5l-1-4v-10l4-13 4-6 5-1 9-23 6-10 5-10 1-7 3-1 1-2v-24l5-28 4-20v-12l4-2 8-23 9-17 3-1-2 6-5 9-1 6 5-2 14-10 14-9h2l1-3 8-7 4-5-1-4h-2l1-7 7-21 12-24 5-6h5l1 4-8 14-8 12-1 4 2-4 6-5 5-5 10-7 17-10 24-15 8-9 3-5 4 2 4 4 9 5 7 1h8l6-3-1-7 4-8v-4l-5-2 1-4 8-6 14-6 16-1 17-4 15-8 9-8 9-11 15-15 15-5 22-6 30-4 64-4h7l7 13 4 5 10 7 12 3 8-4 9-4 27-8 10-4 2-4h-8l-10-1-10 4-14 8-6 1-9-12-3-5-10-5zm1116 76m-219 32-1 3 9-2v-1zm-1152 1m589 16 4 1zm349 37 1 2zm-1058 2m-1 10-1 5 2-2zm-3 4-3 5 1 3 3-3 1-4zm-3 9m206 0m499 42m57 32m4 20m-844 57m152 35m-175 19-3 9-4 13 1 2 4-1 5 3 2 8 2 23 1 13 2 2-1 7-5 20-2 3-2-3-1-39h-5l-3 3-2 19-3 49 2 30 8 30 1 3 4-1 4-10v-64l3-14 3-7 2-1-1 5v20l2 4 3-15 5-27 8-31 3-12v-8l-1-2h-2l-7 24-4 10 2-15-1-19-3-12-4-8-6-5-6 1v-7zm186 11 1 2zm-194 13m-1 1 1 2zm155 119 1 2zm-1 2m7 17m-146 61v2l-4 2-4 6h4l1 3 5 1-1-14zm151 3m-6 78 1 5 4 5v-6l-4-4zm5 10 1 2zm-167 46-2 2v11l3 13 7 14 14 12 9 10 10 10 3 2h8l2-2-1-9-7-24-4-6-4-2-3 13-2 2h-5v-15l-5-6-15-11-4-7-3-7zm-66 6 1 2zm12 77m174 13v66l-3 13-3 1-10-7-7-10-8-13-8-15-5-10-6-11-1 2 12 31 10 19 8 11 23 15 15 9 22 12 19 9 4 1 3-1-1-5-4-6-3-3h-2v-2l-9-2-3-9-15-31-11-25-12-30-4-9zm1703 2 1 2zm-1828 65 1 4 1-2zm-6 3m8 3m3 7m1810 61m1 1-3 3-1 4 4-2 1-5zm-5 8m-1661 5-1 1v6l6 9 2 1h7l-1-4-8-11zm-13 34 1 6 11 20 15 22 12 13 7 8 8 10h2v-15l3 1 9 13 3 8 5 26 7 13 8 10 14 11 9 9h2v2h2v2l8 7 13 10 5 3h7l3 10 6 11 6 8h2v2l11 7 18 6 23 12 17 9h2l-1-6-11-8-10-9-6-7-2-5 1-3 17 14h2l-4-16 3 2 4-1 4-5 4-6-2-5-20-16-22-13-6-4h-2l3 9v15l-8-1-10-5 4-6 5-5-2-5-7-13-9-12-9-7h-5l-2 4 10 7 4 5-1 5-4 7v6l5 5-5-1-13-10-10-9-4-4-3-1-1-2 8-1 3-4-1-10-3-10-8-16-15-16-10-10-1-2h-2l-2-4-5-5-5 2-6 6v7l5 10-8-7-7-8-9-14-2-5 6 2 1 3 5 4h4l-1-13-7-20-5-7h-2l-1-3-4-2-2 2-7-4h-4l1 3h2l-1 4-11 4 3-4-2-5-11-11-4-2 1 23-5-4-8-16-4-5zm1576 40m-1318 71m-221 43m150 1m-5 8m235 33m1 1-3 2 5 1zm61 53m-142 15-1 8v22l4 15 8 16 8 11 10 12h2l1 3 8 7 12 11 7 5 6 10 7 8 14 10 29 15 28 15 13 10 3 1 2 4 11 12 7 1 11-5v-2l-9-6-12-10 8 4 5 4 14 9 3 4-2 6-2 2 1 4h2v2l12 5 9 3h5l-1-5-3-6 6 4 18 18 8 5h2l1 10 8 11 16 16 1 3h-7l-11-4-17-9-25-15-4-6-12-7-5-6v-13h-2l-1-3-11-8-8-3h-4v-2l-26-6-12-1h-22l3 2 8 4 10 4-1 5-1 2 8 7 8 6 15 10 1 2-18 2-7 1v-2l-20-20-5-4-5-2-7-13-8-12-13-16-12-11-7-4 1 5 8 11 9 12 3 7v3l-6 3 5 4 8 6 13 13 6 3 1 2h-11l-9 5-6 3 5 5 17 10 5 5-23-9-9-2-3 3 1 6 3 5 14 8 15 10 14 8 5 1v-2l9 9 7 3h13l8 2 12 9h1v-6l-6-8-5-3-19-3-16-6-1-4 5 1 8 3 4-1 1-4-4-8-16-11-5-4h-2v-2l-5-2-1-7 2-2 5 1 10 9 10 8 5-2h20l6-2 12 8 10 10 10 7 7 2h6l8-7 4-2 8 4 7 6 7 13 11 12 15 13 15 11 19 12 23 13 25 6-2-5-11-8-9-6-1-4 5 1 23 11 7 3 1 2-2 1 2 4 15 6 9 3h3v2l-24-6h-6l-2 5 12 12 12 9 5 4-1 3 14 8 7 2 9-1 13-7 8-3v-5l-9-10-17-17-3-5-1-5 10 4 40 20 4-1 11-8 17-12-3 6-4 5-2 5 1 4h10l7 1 14-8 2-10 8-9 8-7 14-11 10-9 4-4v-2l4-2 9-1-2 5-8 6-2 4h8l12-5 22-14 7-7 7-8 2-3-6-5v-5l7-11 3-5-5 1-16 7-16 8-19 9-22 13-7 6-1 4-6 1 3-2-1-3-11 4-11 8-15 13-17 14-9 5-4 2h-5l-4-7-3-10-2-4-1-6-3-1h-17v-2h3l-2-4-19-9-11-6-3-2-39-1h-17l-5 5-11-2-10-5-4-3-3-5-14-18-1-4 35 21h4l3-5v-10l-5-10-4-6 8-1-1-4-7-4-9-2h-8l-1 4-7-4-11-8-16-13-13-12-11-9-11-10-14-11-15-12-20-13-22-11 9 2 2-1-2-5-5-6-1-4 9 5 2 1-2-6-4-4h-2l-1-3-6-3-27-4-15-8-1-3 7 3 11 6 7 1-1-3-14-11-19-12-33-17-27-14-16-10-11-8-10-9-3-2 1-5 2-4-1-4-11-8-15-10zm961 18-14 12-14 11-11 6h-5l-3-6h-4v2l-6 2-6 8-3 7 3 2-11 8-7 8-8 8-7 8-11 8h-2l-1-8-5 3-10 10-8 7-10 8-16 13-6 3-24 34-11 14-11 12-9 11-18 18-8 7-5 4v2l-4 2-14 11-15 11v1h13l17-4 30-11 2-1-4 17-1 2-14-1-7 11-6 9v3l9-1 7-2 9-4 16-7 8-11 11-17 13-21-1-3-6 1-21 9 4-3 15-10 10-8 13-12 8-7 5-4 2-4-9 1-7 3-7 4v2h-2v2h-2l-2 4-1 4v-6l6-10 1-5h-7l-2 1 4-6 17-17 17-12 21-12 17-10 5 1 8 6 4 1 8-7 4-14 4-8 8-5-2 5-4 5 1 4 7 4-1 5-2 2v3l7 1 1 1h7l6-3 9-7 3-9 4-5 19-8 5-5 6-11 3 1 3 8 6-1 6-4 8-15 2-9v-9l-6-12-5 1-8 8-8 18-5 12-6 9-2 1 1-6 12-31 3-9-2-3-6 3v2l-5 2h-2l7-10 4-11 2-7v-5zm172 15m-169 12m-113 48m-865 31v2l2-1zm-48 2m421 9m94 47 1 2 1-2zm-1 2-2 3 1 4 3-4-1-3zm-376 6m421 11m284 21m-2 1 2 2v-2z"/>
<path transform="translate(723,51)" d="m0 0 9 1 17 4h7l25 8 20 7 8 6 1 5-5 3-22 7-14 3h-17l-14-9-14-4-7-1h-30l-20 2-48 2v2l-11 7-17 5-8 1 2-5 14-7 19-6 5-2-2-5-5-3-6-1h-22l-22 3-16 5-12 6-5 4h25l8 3 2 2v14l2 3h29v2l-14 6-12 5-18 6-8 1-8-2 1-4 18-12 5-4-3-2-21 1-11 1-3 12-2 12-7 3-44 9-18 5-4 2v2l21 7 1 1 9-1 32-7 55-9 19-4 3-3 17-4 8-6 7-6 8-2h5v22l17-4 24-2h19l1 3-6 7-11 4-7 1h-17l-33-2h-21l-17 2-18 4-16 8-7-1-5-2-9-1-15 2-2 1-2 8-4 4-12 6-26 8-28 8-16 6-12 6-3-2 4-4h2v-2l5-4 3-1-1-2-6 1-16 9-11 8-14 9-19 8-1-3-16 11-6 1-1-4v-5h2l-2-4 1-5 13-7 12-8 18-11 11-4 4-2 2-4 5-5 11-9 19-11 21-9 14-5 11-5 16-6 14-8 7-6 2-3-23 4-42 9-30 6-9 1-5-1-11 7-18 14-8 7-10 9-8 7-11 13-11 14-10 12-8 10-13 18-7 10-15 25-17 26-8 13-13 20-5 5-11 9-4 2h-8l-5-4-1-2v-8l-4 5-6 10-3 12-2 20h-3v-12l-1-3-11 1-7 2-5 16-3 1 2-25 7-33 9-39 12-38 13-30 10-21 9-16 10-13 10-9 10-7 20-12 19-10 23-11 36-18 5-4 4 1v6l11 1 18-4 15-6-1-2-8-1 1-2 25-5 58-11 40-11 15-5 14-8 1 2-4 5-11 9-1 1 10-2 39-11 27-8 9-4 3 1-4 4-1 4h22l32-5 16-1-1 3-12 3v2l10 1h25l15-2 10-3v-4l-6-4z"/>
<path transform="translate(573,364)" d="m0 0h2l-2 12 14-7 6-4 4-1h9v3l-11 8-6 5 25-4 22-1 20-4 8-1 6 1 47-1 6-2h5l1 4-2 6 9-5h7l11 8 5 3 17 4 8 5-6 12 6 1h17l27-5h8l10 3 7 4v23l-3 1-9-6-5-2-12-1h-3l1 4 17 10-2 4-3 2 11 10 11 8 4 4v2l-9-3-29-13-30-10-13-4-37-9-39-6-17-2-31-2h-38l-1 2-10-1-26 3-21 4-3 5-18 9h-2l1-4 1-5-10 4-14 8-27 9v2h-2l4 8-1 3-9 2-12 2-10 4-5-5 3-9 1-7-5-3-2-2 5-4 13-7 8-6 4-4-1-6-9-2-9 1 1-3 14-10 14-11 11-7 8-4 5 1-17 17-9 12-1 6 5 5 4-1 5-11 4-11 2-2h3v6l-4 7v2l4 1h7l10-3 5-2-3-3-8-4 1-5 4-5 15-10 16-10z"/>
<path transform="translate(880,432)" d="m0 0 6 1 17 6 21 11 38 24 21 14 17 12 18 14 15 12 34 26 18 14 4-1 11-10 8-7 4-2-1 4-2 2v6l7 3v2l-29 19-4-2-17-12-10-5-22-8-11-6-6-4-4-1v-2h-2l7 8 18 18 11 9 13 11 11 9 13 11 5 1v-2l11-9 12-11 11-9 3-3h2v-2h2v-2l8-7 7-8 5-5 4-5h2v-2l-14 8-11 7-2-1 5-8 12-17 8-11 6-7 4 1 2 2 4-7 11-12 10-9 17-12 40-26 16-10 10-6h3v9l15 9v5l-10 9-15 10-19 14-14 10-12 9-19 14-13 10-16 13-22 18-17 14-14 11-13 11-14 11-6 5-4-1-14-10-16-13-18-13-8-6-9-8-16-12-13-10-20-14-16-12-10-11-9-12-5-12-6-8-13-11-10-8-4-2 5 16 3 8-5-1-10-7-16-7-4-4v-2l-15-2-3-2 1-5 3-3h17l14 1-4-8-3-4zm129 108v2l2-1z"/>
<path transform="translate(854,87)" d="m0 0h10l17 2 18 6 11 6 5 4 1 3-6 28-5 12-7 8-11 4h-16l-27-4-74-17-26-3v-3l12-4 18-8 20-4 2-8 17-3 7 1v5l-2 2-9 2-1 2 12 3 14 1 11-2 7-3 1-3-11-5-8-4v-2l15-4-4-6 2-4z"/>
<path transform="translate(1900,799)" d="m0 0 5 1 8 17 9 18v-19h19l1-5 2 2 2 5 6 8 1 6-8 19-10 29 1 5 2 7v14l-4 20-2 5h-4l-2-3v-29l-2-5-3 12-3 4-4-1-4-9-3-6 1-6 7-17 2-8-8-14-4-6-4 4-6 8-3 1-4-2-9 1 2-5 4-15 5-19 4-9z"/>
<path transform="translate(1866,882)" d="m0 0 5 1 3 7 6 2-1 7v14h4l1-17v-5l2-1 8 6 5 1-1 10-4 15-1 10 2 5h3l2-6 4-8 4 1 3 23v8l-3 6-4 2 1-9v-12l-7 3-7 9-14 27-7 13h-2l1-7 9-25 7-13 7-9-6-8-4-3-2 7-5 11-7 21-6 22-4 8h-1l-2-21v-34l6-47 3-12z"/>
<path transform="translate(157,428)" d="m0 0h2l2 8 5-4 2 2v5l-9 1-1 17 1 19 6 37v6l4-4 7-24 2-1-1 10-6 43-2 4-2-14-2-11-3-1h-7l-8 9-3 9-1 6-2 2-3 20-3 12-4-2v-2l-5 3-7 10-3 3-2-1 6-31 14-43 8-23 3-9 4-1v4h2l-1-14v-14l3-9 2-3 1-18z"/>
<path transform="translate(1924,677)" d="m0 0 4 1 3 4 2 12 1 18 1 9 4 1v-15l1-6 3 3 9 30v3l-8-1-2 3-1 7 2 8 9 4 4 16 1 8-6 4-2 4-4 18-2 2-1-2-2-15-4-6-6-4-7-4-4-6-3-16v-6l3 1 3 3h2l1-10v-16l-1-7 2-3-1-17z"/>
<path transform="translate(1339,1567)" d="m0 0 1 4h-2v2l-3 3h-2v2h-2v2l-7 6-13 17-10 13-9 11-12 14-6 6-13-1-9-2v-3l12-4 11-8 10-11 11-14 13-16 7-7 10-7z"/>
<path transform="translate(2033,911)" d="m0 0h2l1 4v25l1 12v29l-4 15-1 2-4-2-3-7v-18l1-11v-9l-1-3-8-2-4 18v13l2 10v4h-2l-5-6v-14l5-20 11-26z"/>
<path transform="translate(455,1536)" d="m0 0 8 1 10 5 11 7 27 18 16 8 1 2-7-1-26-10 1 5-3 1-11-6-11-7-13-12-5-6v-4z"/>
<path transform="translate(729,1399)" d="m0 0 5 2 11 10 11 9 15 13 12 9v3l-16-1-9-1-6-4-7-6 1-9-6-10-11-13z"/>
<path transform="translate(1371,409)" d="m0 0h3l-1 3-8 2 3 7 3 4-1 3-8 3h-8l-5-2-8-7-1-2-11 3-1 2h-3l-1 4-1 2-4-1-6-3 1-2 11-3 6-11 4-1 2 4 4 3 16-3 11-4z"/>
<path transform="translate(1487,364)" d="m0 0h14l1 1v6l-4 4-5-1-3-2h-5l1 4 2 3v7l-4 6-5 4-6 2-1-7v-21l6-3zm-5 7 1 2 1-2z"/>
<path transform="translate(432,468)" d="m0 0h3l4 8 4 4 2-4 4-5h4v9l-2 3h-12l-11 9-6 7-4-1v-12l-4-3 14-12h2v-2z"/>
<path transform="translate(613,1639)" d="m0 0 5 3 10 10v4l-11-3-2-1-1 7 1 9v12l-4 2-4-1v-11l-5-14-6-9 1-3 6 4v2h4l4-10z"/>
<path transform="translate(1251,1588)" d="m0 0 8 1 9 3v3l-7 6-6 13-7 10-4 1-2-4 4-10 5-11 1-7z"/>
<path transform="translate(1523,367)" d="m0 0h2l-1 9 14-2v-2l6-1-1 10-1 2-10 1h-28l2-4 11-7 4-2z"/>
<path transform="translate(165,1163)" d="m0 0 4 4 8 14 7 12v4h-7l-8-4-9-9-2-5 5 1 11 8-1-4v-2h-2l-2-5h-2l-3-6v-7z"/>
<path transform="translate(2026,540)" d="m0 0 4 2 6 10 6 17 5 19 1 8-3-1-4-8-9-29-3-10-3-6z"/>
<path transform="translate(1009,310)" d="m0 0 5 1 19 9v4l-3 1h-14l-3-5-4-8z"/>
<path transform="translate(1563,1543)" d="m0 0 2 1-4 8-9 12h-14l-2-1v-2l14-7 10-9z"/>
<path transform="translate(673,1570)" d="m0 0h7l4 2 8 16 1 4-5-2-14-14-2-5z"/>
<path transform="translate(436,220)" d="m0 0 5 1-3 3-26 11-8 1 4-4 15-8z"/>
<path transform="translate(448,1401)" d="m0 0 5 1 10 9 7 10v2l-5-1v-2l-4-2-7-6-6-8z" fill="#010101"/>
<path transform="translate(1921,983)" d="m0 0 3 1v13l-2 13-2 2-4-1 1-10 3-16z" fill="#0F0F0F"/>
<path transform="translate(914,1773)" d="m0 0h5l8 5 7 4v3l-1 1-9-1-6-3-4-5z"/>
<path transform="translate(617,1337)" d="m0 0 6 4 5 4 2 5-4 3-6 2h-4l1-4 1-1v-7z"/>
<path transform="translate(1281,1855)" d="m0 0h3l1 5-7 8-6 3h-4l1-5z"/>
<path transform="translate(1574,1678)" d="m0 0h2v7l-6 7-12 6v-3l13-13z" fill="#010101"/>
<path transform="translate(1300,1623)" d="m0 0h5l3 3-1 4-6 1h-9l2-4 3-3z"/>
<path transform="translate(456,1078)" d="m0 0h3l6 11-1 3-7-4-5-4 1-4z"/>
<path transform="translate(1561,381)" d="m0 0h29l13 3v2h-7l-13-2-22-2z"/>
<path transform="translate(1008,1832)" d="m0 0 6 1 9 6 4 5-1 3-9-6-9-7z"/>
<path transform="translate(963,1933)" d="m0 0 9 1 16 3 2 2-8 1-12-1-7-4z" fill="#020303"/>
<path transform="translate(1616,1279)" d="m0 0 4 1-1 5-7 9-4 1 1-5 5-9z" fill="#0C0C0C"/>
<path transform="translate(1377,1729)" d="m0 0 3 1-11 12-4 1-1-4 5-5z"/>
<path transform="translate(364,900)" d="m0 0 4 1 6 7 3 7-1 2-4-2-7-10z"/>
<path transform="translate(605,117)" d="m0 0h5l-1 3-24 8-2-2 13-6z"/>
<path transform="translate(1933,985)" d="m0 0 4 1 2 3-1 5-6 9h-2z"/>
<path transform="translate(775,56)" d="m0 0h15l8 1-1 2-7 1h-14l-2-1z" fill="#080808"/>
<path transform="translate(2037,996)" d="m0 0h3l-1 21-1 2h-3l1-20z"/>
<path transform="translate(632,1534)" d="m0 0 4 1 8 6 6 3v3l-5-2-12-6z"/>
<path transform="translate(404,144)" d="m0 0 3 1v2l-14 8-5 2-3-1 11-7z"/>
<path transform="translate(1618,385)" d="m0 0 14 2 16 2 1 2h-11l-20-4z"/>
<path transform="translate(703,1367)" d="m0 0 5 3 4 5 1 5-2 1-3-3-4-6-2-4z"/>
<path transform="translate(1447,398)" d="m0 0h4l-1 4-6 2h-6l-1-3z" fill="#0B0B0B"/>
<path transform="translate(388,1014)" d="m0 0h2l9 14 2 4-4-2-9-12z"/>
<path transform="translate(304,262)" d="m0 0 1 3-8 11-5 3 2-5 9-11z"/>
<path transform="translate(158,400)" d="m0 0h1v16l-1 5-2-1v-10l1-9z"/>
<path transform="translate(1550,1664)" d="m0 0 2 1-1 5-6 7-1-4z" fill="#050606"/>
<path transform="translate(2e3 498)" d="m0 0 6 5 1 5-3-1-4-6z"/>
<path transform="translate(825,1727)" d="m0 0 9 3v2l-6-1-3-2z" fill="#0B0B0B"/>
<path transform="translate(1076,1696)" d="m0 0h2l-1 5-4 1 1-4z"/>
<path transform="translate(801,1467)" d="m0 0 8 2v2l-8-1z"/>
<path transform="translate(1990,1144)" d="m0 0h1v8l-1 2h-2l1-8z"/>
<path transform="translate(736,136)" d="m0 0h3v2l-3 1h-7l1-2z"/>
<path transform="translate(1793,472)" d="m0 0 3 1-1 4-3-1z" fill="#4D4C4C"/>
<path transform="translate(390,1011)" d="m0 0 5 5-2 2-3-4z"/>
<path transform="translate(172,693)" d="m0 0h1v5h-1z"/>
<path transform="translate(352,1278)" d="m0 0"/>
<path transform="translate(283,1228)" d="m0 0 2 2h-2z"/>
<path transform="translate(1941,1119)" d="m0 0"/>
<path transform="translate(395,1019)" d="m0 0 2 1-2 1z"/>
<path transform="translate(48,588)" d="m0 0 1 2-2-1z"/>
<path transform="translate(371,463)" d="m0 0"/>
<path transform="translate(115,395)" d="m0 0"/>
<path transform="translate(864,374)" d="m0 0 2 1-2 1z"/>
<path transform="translate(636,1407)" d="m0 0"/>
<path transform="translate(1629,1298)" d="m0 0"/>
<path transform="translate(168,547)" d="m0 0"/>
<path transform="translate(1156,1794)" d="m0 0"/>
<path transform="translate(939,1782)" d="m0 0"/>
<path transform="translate(936,1779)" d="m0 0"/>
<path transform="translate(949,1736)" d="m0 0" fill="#fff"/>
<path transform="translate(1117,1693)" d="m0 0"/>
<path transform="translate(1398,1692)" d="m0 0"/>
<path transform="translate(1068,1676)" d="m0 0"/>
<path transform="translate(1069,1674)" d="m0 0"/>
<path transform="translate(1199,1661)" d="m0 0"/>
<path transform="translate(1608,1650)" d="m0 0"/>
<path transform="translate(1579,1628)" d="m0 0"/>
<path transform="translate(1571,1579)" d="m0 0"/>
<path transform="translate(1572,1576)" d="m0 0"/>
<path transform="translate(1573,1575)" d="m0 0"/>
<path transform="translate(1735,1538)" d="m0 0"/>
<path transform="translate(1577,1508)" d="m0 0"/>
<path transform="translate(499,1448)" d="m0 0"/>
<path transform="translate(454,1399)" d="m0 0"/>
<path transform="translate(650,1392)" d="m0 0"/>
<path transform="translate(540,1335)" d="m0 0"/>
<path transform="translate(342,1289)" d="m0 0"/>
<path transform="translate(1854,1264)" d="m0 0"/>
<path transform="translate(289,1240)" d="m0 0"/>
<path transform="translate(324,1237)" d="m0 0"/>
<path transform="translate(287,1236)" d="m0 0"/>
<path transform="translate(284,1231)" d="m0 0"/>
<path transform="translate(540,1220)" d="m0 0"/>
<path transform="translate(1957,1179)" d="m0 0"/>
<path transform="translate(155,1145)" d="m0 0"/>
<path transform="translate(156,1144)" d="m0 0"/>
<path transform="translate(155,1143)" d="m0 0"/>
<path transform="translate(224,1063)" d="m0 0"/>
<path transform="translate(416,1052)" d="m0 0"/>
<path transform="translate(413,1048)" d="m0 0"/>
<path transform="translate(396,1021)" d="m0 0"/>
<path transform="translate(394,1018)" d="m0 0"/>
<path transform="translate(1883,855)" d="m0 0"/>
<path transform="translate(164,804)" d="m0 0"/>
<path transform="translate(312,745)" d="m0 0"/>
<path transform="translate(349,615)" d="m0 0"/>
<path transform="translate(1975,607)" d="m0 0" fill="#fff"/>
<path transform="translate(1972,605)" d="m0 0" fill="#fff"/>
<path transform="translate(1972,603)" d="m0 0"/>
<path transform="translate(1976,579)" d="m0 0"/>
<path transform="translate(160,568)" d="m0 0"/>
<path transform="translate(1016,547)" d="m0 0"/>
<path transform="translate(1016,545)" d="m0 0"/>
<path transform="translate(172,542)" d="m0 0"/>
<path transform="translate(173,540)" d="m0 0"/>
<path transform="translate(167,514)" d="m0 0"/>
<path transform="translate(378,501)" d="m0 0"/>
<path transform="translate(377,483)" d="m0 0"/>
<path transform="translate(454,471)" d="m0 0"/>
<path transform="translate(972,418)" d="m0 0"/>
<path transform="translate(116,394)" d="m0 0"/>
<path transform="translate(261,369)" d="m0 0"/>
<path transform="translate(263,364)" d="m0 0"/>
<path transform="translate(1323,349)" d="m0 0"/>
<path transform="translate(1014,324)" d="m0 0"/>
<path transform="translate(332,226)" d="m0 0"/>
<path transform="translate(848,98)" d="m0 0"/>
</svg>
